<?xml version="1.0" encoding="UTF-8"?>
<svg xmlns="http://www.w3.org/2000/svg" width="286" height="71" viewBox="0 0 286 71" fill="none"><path d="M58.2645 20.0844L55.7964 22.5525C58.5928 26.9157 59.9021 32.0667 59.5285 37.2357C59.155 42.4046 57.1186 47.3139 53.7239 51.2297L51.2862 48.7954L50.4511 47.9806L48.0134 45.5463C46.5128 47.4018 44.6182 48.9002 42.4668 49.9329C40.3154 50.9656 37.9613 51.5068 35.5749 51.5171C32.3006 51.5139 29.1059 50.5077 26.4208 48.6338C23.7357 46.7599 21.6892 44.1084 20.5567 41.0361C20.1455 39.9281 19.8619 38.7767 19.7115 37.6045H8.18921C8.27228 38.7574 8.43039 39.9037 8.66254 41.0361C9.47893 45.0163 11.1684 48.7657 13.6091 52.014C16.0498 55.2622 19.1808 57.9284 22.7766 59.8203C26.3723 61.7121 30.343 62.7824 34.4024 62.9541C38.4618 63.1258 42.5087 62.3945 46.2513 60.813C49.9939 59.2314 53.3389 56.8391 56.0451 53.8085C58.7513 50.7778 60.7513 47.1844 61.9008 43.2874C63.0503 39.3904 63.3207 35.2868 62.6924 31.2726C62.0642 27.2585 60.553 23.4337 58.2679 20.0742L58.2645 20.0844ZM35.5749 59.5434C30.1636 59.5372 24.9123 57.7068 20.6695 54.3481C16.4267 50.9893 13.4401 46.2982 12.1923 41.0327H16.9459C17.8597 44.1235 19.5283 46.9382 21.8014 49.2232C24.0745 51.5081 26.8806 53.1913 29.9666 54.1211C33.0525 55.051 36.3214 55.1981 39.4785 54.5493C42.6355 53.9005 45.5814 52.4762 48.0506 50.4047L48.8823 51.2331L51.3099 53.664C46.9484 57.462 41.3583 59.5508 35.5749 59.5434Z" fill="white"/><path d="M57.551 55.0737C56.7843 55.9232 55.9729 56.7313 55.1201 57.4944L56.9763 59.3438C52.4801 63.3892 46.9312 66.08 40.9706 67.1054C35.01 68.1308 28.8809 67.449 23.2913 65.1386C17.7018 62.8283 12.88 58.9837 9.38289 54.049C5.88578 49.1144 3.85611 43.291 3.52835 37.2517C3.2006 31.2125 4.58813 25.2037 7.53066 19.9195C10.4732 14.6354 14.8506 10.2916 20.1573 7.38988C25.464 4.48818 31.4833 3.14701 37.5199 3.52133C43.5564 3.89564 49.364 5.97015 54.2715 9.5052C55.2103 10.1775 56.1131 10.8987 56.9763 11.6656L53.717 14.9249C52.8534 14.1597 51.9408 13.4516 50.9852 12.805C47.25 10.2594 42.9437 8.67618 38.4492 8.19613C33.9546 7.71609 29.411 8.35408 25.2225 10.0534C21.0339 11.7527 17.3302 14.4607 14.4405 17.9365C11.5509 21.4124 9.56486 25.5484 8.65909 29.9769C8.43024 31.1098 8.27216 32.2559 8.18576 33.4085H19.6844C19.8339 32.2361 20.1175 31.0846 20.5296 29.9769C21.3023 27.8702 22.51 25.9499 24.0741 24.3409C25.6381 22.7319 27.5234 21.4703 29.6074 20.6382C31.6913 19.8061 33.9271 19.4222 36.1692 19.5114C38.4113 19.6006 40.6095 20.1609 42.6207 21.156C44.7124 22.1818 46.5533 23.6546 48.0134 25.4701L50.451 23.0358L51.2726 22.2108L53.7103 19.7765L56.131 17.3524L59.3903 14.0932L61.811 11.6724C61.0447 10.8215 60.2344 10.0112 59.3835 9.24487C58.5315 8.46725 57.6491 7.74035 56.7295 7.04725C51.3342 3.02172 44.9057 0.613115 38.1936 0.102354C31.4815 -0.408407 24.7625 0.999736 18.8203 4.16254C12.8781 7.32534 7.9576 12.1124 4.6327 17.9655C1.30781 23.8185 -0.28443 30.4963 0.0416964 37.2199C0.367823 43.9435 2.59887 50.4358 6.47462 55.9396C10.3504 61.4434 15.7111 65.7318 21.9315 68.3046C28.1519 70.8775 34.9756 71.6288 41.6068 70.4708C48.238 69.3128 54.4032 66.2934 59.3835 61.7646C60.236 61.0023 61.0463 60.1941 61.811 59.3438L59.3903 56.923L57.551 55.0737ZM48.0336 20.6049C44.5335 17.6917 40.1286 16.0875 35.5748 16.0676C31.3865 16.0713 27.3112 17.4266 23.9548 19.932C20.5985 22.4374 18.1403 25.9591 16.9458 29.9735H12.1787C13.0579 26.2355 14.8211 22.7631 17.3202 19.8476C19.8193 16.9321 22.9814 14.6587 26.541 13.2183C30.1005 11.7778 33.9537 11.2123 37.7771 11.5693C41.6004 11.9263 45.2823 13.1953 48.5137 15.2697C49.4896 15.8916 50.4185 16.5843 51.2929 17.3422L48.0336 20.6049Z" fill="white"/><path d="M285.04 51H279.4L277.28 44.8H265.32L263.2 51H257.56L267.52 23H275.08L285.04 51ZM270.92 28.52L266.92 40.16H275.68L271.72 28.52H270.92Z" fill="white"/><path d="M245.544 41.24L254.904 51H248.424L239.344 41.32H237.824V51H232.624V23H245.464C247.144 23 248.637 23.4 249.944 24.2C251.277 24.9733 252.317 26.0667 253.064 27.48C253.811 28.8667 254.184 30.4667 254.184 32.28C254.184 33.96 253.824 35.4933 253.104 36.88C252.384 38.24 251.411 39.3067 250.184 40.08C248.984 40.8533 247.664 41.24 246.224 41.24H245.544ZM237.824 36.56H245.224C246.291 36.56 247.184 36.16 247.904 35.36C248.624 34.56 248.984 33.52 248.984 32.24C248.984 30.96 248.624 29.92 247.904 29.12C247.184 28.2933 246.291 27.88 245.224 27.88H237.824V36.56Z" fill="white"/><path d="M212.397 51.4001C209.917 51.4001 207.637 50.7868 205.557 49.5601C203.504 48.3334 201.877 46.6268 200.677 44.4401C199.477 42.2534 198.877 39.7734 198.877 37.0001C198.877 34.2268 199.477 31.7468 200.677 29.5601C201.877 27.3734 203.504 25.6668 205.557 24.4401C207.637 23.2134 209.917 22.6001 212.397 22.6001C214.877 22.6001 217.144 23.2134 219.197 24.4401C221.277 25.6668 222.917 27.3734 224.117 29.5601C225.317 31.7468 225.917 34.2268 225.917 37.0001C225.917 39.7734 225.317 42.2534 224.117 44.4401C222.917 46.6268 221.277 48.3334 219.197 49.5601C217.144 50.7868 214.877 51.4001 212.397 51.4001ZM212.397 46.4001C213.917 46.4001 215.317 46.0134 216.597 45.2401C217.877 44.4401 218.877 43.3334 219.597 41.9201C220.344 40.4801 220.717 38.8401 220.717 37.0001C220.717 35.1601 220.344 33.5334 219.597 32.1201C218.877 30.6801 217.877 29.5734 216.597 28.8001C215.317 28.0001 213.917 27.6001 212.397 27.6001C210.877 27.6001 209.477 28.0001 208.197 28.8001C206.917 29.5734 205.904 30.6801 205.157 32.1201C204.437 33.5334 204.077 35.1601 204.077 37.0001C204.077 38.8401 204.437 40.4801 205.157 41.9201C205.904 43.3334 206.917 44.4401 208.197 45.2401C209.477 46.0134 210.877 46.4001 212.397 46.4001Z" fill="white"/><path d="M186.705 51H181.505V28H173.185V23H195.025V28H186.705V51Z" fill="white"/><path d="M149.441 51H144.241V23H151.121L161.361 42.56H162.161V23H167.361V51H160.441L150.241 31.44H149.441V51Z" fill="white"/><path d="M129.478 51H124.278V41.4L114.078 23H119.838L126.478 35.16H127.278L133.878 23H139.678L129.478 41.4V51Z" fill="white"/><path d="M99.28 51.4001C96.8 51.4001 94.52 50.7868 92.44 49.5601C90.3867 48.3334 88.76 46.6268 87.56 44.4401C86.36 42.2534 85.76 39.7734 85.76 37.0001C85.76 34.2268 86.36 31.7468 87.56 29.5601C88.76 27.3734 90.3867 25.6668 92.44 24.4401C94.52 23.2134 96.8 22.6001 99.28 22.6001C101.547 22.6001 103.56 23.0934 105.32 24.0801C107.107 25.0401 108.547 26.3068 109.64 27.8801C110.76 29.4268 111.52 31.0934 111.92 32.8801H106.64C106.187 31.4134 105.307 30.1734 104 29.1601C102.72 28.1201 101.147 27.6001 99.28 27.6001C97.76 27.6001 96.36 28.0001 95.08 28.8001C93.8 29.5734 92.7867 30.6801 92.04 32.1201C91.32 33.5334 90.96 35.1601 90.96 37.0001C90.96 38.8401 91.32 40.4801 92.04 41.9201C92.7867 43.3334 93.8 44.4401 95.08 45.2401C96.36 46.0134 97.76 46.4001 99.28 46.4001C101.2 46.4001 102.8 45.8801 104.08 44.8401C105.36 43.7734 106.213 42.4668 106.64 40.9201H111.92C111.547 42.7334 110.813 44.4401 109.72 46.0401C108.627 47.6401 107.187 48.9334 105.4 49.9201C103.64 50.9068 101.6 51.4001 99.28 51.4001Z" fill="white"/></svg>
